<svg width="512" height="512" viewBox="0 0 512 512" fill="none" xmlns="http://www.w3.org/2000/svg">
<path d="M416 512H96C42.976 512 0 469.024 0 416V96C0 42.976 42.976 0 96 0H416C469.024 0 512 42.976 512 96V416C512 469.024 469.024 512 416 512Z" fill="#F3940E"/>
<path d="M328 224H184C170.768 224 160 234.768 160 248V360C160 373.232 170.768 384 184 384H328C341.232 384 352 373.232 352 360V248C352 234.768 341.232 224 328 224Z" fill="white"/>
<path d="M320 192V224H298.672V192C298.672 168.432 279.584 149.328 256 149.328C232.416 149.328 213.328 168.432 213.328 192V224H192V192C192 156.688 220.688 128 256 128C291.312 128 320 156.688 320 192Z" fill="white"/>
</svg>
